PathFileType	4	(X/Y/Z)	c:\Git\powerlifing_model_clean\simulations\HC835B\Session1\HC835B_CUT_0003\marker_experimental.trc
DataRate	CameraRate	NumFrames	NumMarkers	Units	OrigDataRate	OrigDataStartFrame	OrigNumFrames
240.000000	240.000000	4	38	mm	240.000000	30	81
Frame#	Time	RPSI			LPSI			RASI			LASI			RTH1			RTH2			RTH3			RTH4			RSK1			RSK2			RSK3			RSK4			RCAL1			RCAL2			RCAL3			RST			RPT			RTN			RFMB			RSMB			RVMB			RFMH			RSMH			RVMH			RPM			LTH1			LTH2			LTH3			LTH4			LSK1			LSK2			LSK3			LSK4			LCAL1			LCAL2			LCAL3			LFMH			LVMH			
		X1	Y1	Z1	X2	Y2	Z2	X3	Y3	Z3	X4	Y4	Z4	X5	Y5	Z5	X6	Y6	Z6	X7	Y7	Z7	X8	Y8	Z8	X9	Y9	Z9	X10	Y10	Z10	X11	Y11	Z11	X12	Y12	Z12	X13	Y13	Z13	X14	Y14	Z14	X15	Y15	Z15	X16	Y16	Z16	X17	Y17	Z17	X18	Y18	Z18	X19	Y19	Z19	X20	Y20	Z20	X21	Y21	Z21	X22	Y22	Z22	X23	Y23	Z23	X24	Y24	Z24	X25	Y25	Z25	X26	Y26	Z26	X27	Y27	Z27	X28	Y28	Z28	X29	Y29	Z29	X30	Y30	Z30	X31	Y31	Z31	X32	Y32	Z32	X33	Y33	Z33	X34	Y34	Z34	X35	Y35	Z35	X36	Y36	Z36	X37	Y37	Z37	X38	Y38	Z38	

31	0.125	235.3216094970704	1005.061340332031	-214.0919799804688	148.6650695800782	968.1705322265627	-157.9373016357422	182.8558654785157	962.4776000976565	-434.0810852050782	-0.4103916585445405	897.316101074219	-304.1911010742188	343.4554138183594	750.3695678710939	-488.8611450195314	304.9943237304688	746.5982666015626	-535.7983398437501	340.8243713378907	677.0492553710939	-530.9157104492189	296.1044311523438	668.0093994140626	-568.1290283203126	523.4492797851564	289.9559631347657	-496.3973999023439	505.3384399414064	258.3502197265626	-546.3725585937501	542.0913085937501	234.7552185058594	-503.7883911132814	515.3295898437501	200.1652221679688	-544.9157104492189	611.8354492187501	96.77606201171878	-416.2894592285157	585.8625488281251	56.60881805419923	-403.5591430664064	644.3543090820314	62.40271377563478	-430.274139404297	538.4324951171876	54.62083435058595	-457.7849731445314	641.6171264648439	70.55514526367189	-495.0587158203126	523.3449707031251	66.69309997558595	-517.6853637695314	519.5332031250001	60.15342330932619	-551.1559448242189	555.5502319335939	89.96451568603517	-575.0226440429689	637.6096801757814	45.3729476928711	-537.8720703125001	506.9969482421876	45.08659744262696	-600.5734252929689	546.4306640625001	58.58354949951173	-636.6142578125001	621.5986328125001	36.16523742675782	-614.7412719726564	514.2882690429689	36.37435150146485	-687.7006835937501	17.3027458190918	595.3541259765626	-259.7446289062501	-14.30271816253662	595.8117675781251	-311.3961486816407	16.51899337768555	521.1129760742189	-301.4985961914063	-2.118373394012452	525.4844970703126	-360.0962524414063	214.7445526123047	433.9153137207032	-123.2064514160157	236.7167205810547	385.4431762695314	-115.6496963500977	254.3447265625001	420.7746582031251	-84.7843475341797	286.7021789550782	374.8186340332032	-88.61370086669923	374.0673217773438	498.4095458984376	11.31917095184326	369.6317138671876	487.5389709472657	57.5541343688965	419.3765258789064	500.0137634277345	26.9779396057129	465.9412231445314	290.6948547363282	-26.7104892730713	391.2710876464845	294.6323852539063	54.6629981994629	
32	0.1291666666666667	230.3514251708985	1004.955017089844	-228.0939025878907	142.1914672851563	967.5085449218752	-172.9461669921875	180.2712554931641	960.7545166015627	-451.3265380859376	-2.79993486404419	893.0992431640627	-320.4616699218751	341.3365783691407	749.3295898437501	-502.2889404296876	303.3943481445313	745.2894897460939	-549.3488159179689	339.1722717285157	675.8768920898439	-544.1254882812501	294.5606384277344	666.5673217773439	-581.4160766601564	521.9332275390626	290.9293518066407	-500.318572998047	505.4798889160157	258.6409301757813	-550.4248657226564	541.2896118164064	235.8494415283204	-506.5985107421876	515.9984741210939	200.5610809326172	-548.2071533203126	610.9531250000001	97.60829162597659	-416.570037841797	585.0969848632814	57.24304962158205	-403.8760681152345	643.6721191406251	63.25725555419923	-430.3375549316407	537.8076782226564	54.98525619506837	-458.3291015625001	641.1350097656251	71.20649719238283	-495.143280029297	522.0364379882814	66.58152008056642	-518.2451171875001	519.2771606445314	60.19521331787111	-551.6462402343751	555.4197387695314	89.98072052001955	-575.4840087890626	637.3566894531251	45.6946144104004	-537.8278808593751	507.1748962402345	45.08564376831055	-600.9600830078126	546.6249389648439	58.39818572998048	-636.9904174804689	621.7121582031251	36.14739227294923	-614.8131103515626	514.5331420898439	36.22306060791016	-688.0556640625001	9.082089424133303	596.4259643554689	-282.6842651367188	-23.00901031494141	598.8248291015626	-333.8713073730469	6.6155161857605	523.3372802734376	-326.8646545410157	-12.48582458496094	530.0015869140626	-384.7085266113282	206.0260314941407	431.7972412109376	-154.6121215820313	227.9187927246094	383.1348571777344	-148.3025817871094	245.9941558837891	417.8655700683595	-117.0329132080078	278.4893493652344	371.8350524902344	-122.3840942382813	367.8124389648438	492.678436279297	-19.80153846740723	364.0308837890626	480.3114624023439	26.21061515808106	413.3795471191407	493.4552307128907	-4.73049020767212	458.0697326660157	286.0883789062501	-66.4681854248047	384.0812072753907	286.9850463867188	16.72793197631836	
33	0.1333333333333333	225.7132873535157	1004.185241699219	-242.2954406738282	135.6606597900391	967.312438964844	-187.9440307617188	177.7669677734375	958.5547485351565	-467.2371826171876	-5.480493068695069	889.2576904296877	-337.0605773925782	339.3368835449219	748.0548095703126	-515.2270507812501	301.8180236816407	743.8018188476564	-562.6621704101564	337.4561767578126	674.3753662109376	-556.6916503906251	293.4102478027344	665.1072998046876	-594.4954833984376	520.8702392578126	291.3998718261719	-504.0222167968751	506.1231689453126	258.5880737304688	-554.2490844726564	540.7583007812501	236.4325561523438	-509.2626342773439	516.9458618164064	200.6483764648438	-551.2034301757814	610.2866821289064	98.26748657226565	-416.8185119628907	584.4468994140626	57.88001251220705	-404.103729248047	643.1752319335939	64.0498733520508	-430.387664794922	537.3487548828126	55.37368011474611	-458.7435302734376	640.8031616210939	71.74574279785158	-495.2386474609376	522.7217407226564	66.78465270996095	-518.5490722656251	519.0759277343751	60.23326110839845	-552.3416748046876	555.3962402343751	89.97433471679689	-575.9674072265626	637.2015380859376	45.94442749023438	-537.8377685546876	507.219451904297	45.29062652587891	-601.4083862304689	547.0193481445314	58.33774566650392	-637.0880126953126	621.7990722656251	36.02258682250977	-614.8693237304689	514.7310180664064	35.95270538330079	-688.3347778320314	0.7009292840957643	597.4714965820314	-305.5371398925782	-31.91489791870118	602.0703125000001	-356.0386047363282	-3.388249158859254	526.1376953125001	-351.8139343261719	-22.83872222900391	534.7586059570314	-409.3547668457032	197.2155303955079	429.3723144531251	-185.997787475586	219.1112823486329	380.8128967285157	-181.1206665039063	237.6800537109376	414.3482360839845	-149.2520141601563	269.9772644042969	367.7933349609376	-155.7440338134766	361.8639831542969	486.080535888672	-50.94889068603517	358.8925170898438	472.0327453613282	-5.374257564544679	407.6411743164064	485.8035888671876	-36.74275970458985	449.1837463378907	280.3541564941407	-106.3774108886719	376.7860412597657	279.2575378417969	-21.77888679504395	
34	0.1375	220.896469116211	1003.244262695313	-257.1541137695313	129.1096496582032	967.687927246094	-203.3518829345704	175.5519409179688	956.0691528320315	-482.635711669922	-8.582677841186525	885.5169677734377	-352.5825195312501	337.2001342773438	746.5142211914064	-527.7322998046876	300.4704284667969	742.0592651367189	-575.7532958984376	335.8511657714844	672.5878295898439	-568.7553100585939	292.4548950195313	663.1308593750001	-607.0445556640626	520.2328491210939	291.5491027832032	-507.8451232910157	506.7809448242189	258.0774230957032	-558.0107421875001	540.5673828125001	236.6900787353516	-512.0242309570314	517.8240356445314	200.3032531738282	-554.1336059570314	609.9522705078126	98.95080566406253	-417.1467285156251	584.3764038085939	58.65639495849611	-404.1834411621095	642.9426879882814	64.76023864746095	-430.4672851562501	537.1716308593751	55.78398513793947	-459.1021118164064	640.6133422851564	72.13630676269533	-495.3544006347657	521.8175659179689	67.4320526123047	-519.1006469726564	519.1181640625001	60.36703109741212	-552.8360595703126	555.5287475585939	89.93773651123048	-576.3948974609376	637.0787353515626	45.99674606323243	-537.8132324218751	507.4738159179689	45.24922943115235	-601.5244140625001	547.3363647460939	58.10776519775392	-637.3645629882814	622.0420532226564	35.95507049560548	-614.9835815429689	514.9212036132814	35.78450775146485	-688.4990844726564	-8.34291458129883	599.6841430664064	-327.8973388671876	-41.33045959472657	606.1944580078126	-378.3183593750001	-13.48127937316895	529.6079101562501	-376.5224304199219	-33.67556762695313	540.3271484375001	-433.2528686523439	188.7672729492188	427.4415588378907	-217.0696716308594	210.0841369628907	378.3377685546876	-213.5951690673829	229.575668334961	411.0994567871095	-181.2057800292969	261.1456604003907	365.0563659667969	-189.4584655761719	356.0049438476563	478.6430053710939	-82.22727203369142	353.9101257324219	462.870574951172	-37.11296844482423	402.1556701660157	477.4790039062501	-68.82623291015626	440.0803527832032	274.3356018066407	-146.8644256591797	369.2961425781251	270.7118530273438	-61.00931549072267	
